<svg xmlns="http://www.w3.org/2000/svg" width="163.837" height="50" viewBox="0 0 163.837 50"><defs><style>.a{fill:#24262b;}.b{fill:#f79e00;}</style></defs><g transform="translate(-1328.237 -1266.298)"><g transform="translate(1441.256 1266.789)"><path class="a" d="M1669.619,1290.186l16.207-22.717h-15.894L1661.707,1279Z" transform="translate(-1635.009 -1267.469)"/><path class="b" d="M1614.164,1267.469h-16.179l17.385,24.585-17.385,24.378h15.893l17.622-24.481Z" transform="translate(-1597.985 -1267.469)"/><path class="a" d="M1669.379,1329.88l-8.208,11.286,8.163,11.528h16.178Z" transform="translate(-1634.698 -1303.731)"/></g><g transform="translate(1328.237 1266.298)"><path class="a" d="M1328.237,1280.849h5.9a2.2,2.2,0,0,0,2.449,2.205c1.2,0,2.343-.638,2.343-1.772,0-1.3-1.617-1.68-3.593-2.16-3-.746-6.833-1.666-6.833-6.393,0-4.089,3-6.432,7.9-6.432,4.978,0,7.833,2.556,7.833,6.781H1338.5a1.916,1.916,0,0,0-2.164-1.93c-1.019,0-2,.442-2,1.411,0,1.179,1.565,1.57,3.52,2.061,3.056.788,7.052,1.809,7.052,6.552,0,4.535-3.485,6.889-8.307,6.889C1331.522,1288.062,1328.237,1285.375,1328.237,1280.849Z" transform="translate(-1328.237 -1266.298)"/><path class="a" d="M1394.193,1288.235l-1.621-11.959-5.507,11.994h-1.69l-5.5-11.988-1.6,11.954h-5.8l3.14-20.765h5.713l4.89,11.3,4.922-11.3h5.712l3.111,20.765Z" transform="translate(-1353.941 -1266.979)"/><path class="a" d="M1459.029,1284.863h-7.36l-1.15,3.372h-6.13l8.157-20.765h5.592l8.336,20.765h-6.3Zm-3.692-10.911-2.275,6.435h4.571Z" transform="translate(-1395.723 -1266.979)"/><path class="a" d="M1512.615,1281.881h-2.074v6.354h-5.721V1267.47h9c4.477,0,7.722,3.008,7.722,7.348a6.65,6.65,0,0,1-3.3,5.864l4.123,7.552h-6.385Zm-2.074-4.819h2.613a2.268,2.268,0,1,0,0-4.509h-2.613Z" transform="translate(-1430.835 -1266.979)"/><path class="a" d="M1569.541,1272.621h-5.64v15.614h-5.746v-15.614h-5.641v-5.151h17.028Z" transform="translate(-1458.545 -1266.979)"/><path class="a" d="M1348.145,1343.528c0,6.308-4.632,10.826-11.159,10.826h-8.749v-21.616h8.749C1343.53,1332.738,1348.145,1337.212,1348.145,1343.528Zm-6.1,0a5.038,5.038,0,0,0-5.335-5.336h-2.486V1348.9h2.486A5.075,5.075,0,0,0,1342.04,1343.528Z" transform="translate(-1328.237 -1304.901)"/><path class="a" d="M1392.925,1347.74h-2.16v6.614h-5.955v-21.616h9.369c4.66,0,8.038,3.131,8.038,7.65a6.923,6.923,0,0,1-3.431,6.1l4.292,7.861h-6.647Zm-2.16-5.017h2.72a2.361,2.361,0,1,0,0-4.693h-2.72Z" transform="translate(-1361.107 -1304.901)"/><path class="a" d="M1435.75,1345.993v-13.255h6.086v13.143a3.353,3.353,0,1,0,6.7,0v-13.143h6.085v13.255c0,5.317-3.924,8.908-9.436,8.908S1435.75,1351.31,1435.75,1345.993Z" transform="translate(-1390.704 -1304.901)"/><path class="a" d="M1512.159,1342.043c0,7.073-4.618,12.1-11.387,12.1-6.623,0-11.515-4.76-11.515-11.337a11.04,11.04,0,0,1,11.462-11.372c5.666,0,10.3,3.546,11.215,8.569h-6.241a5.243,5.243,0,0,0-4.921-2.991c-3.238,0-5.42,2.341-5.42,5.8,0,3.418,2.147,5.76,5.42,5.76a5.122,5.122,0,0,0,4.9-2.767h-5.368v-3.754Z" transform="translate(-1421.792 -1304.143)"/><path class="a" d="M1551.726,1346.666h6.143a2.294,2.294,0,0,0,2.55,2.3c1.247,0,2.438-.663,2.438-1.844,0-1.356-1.682-1.749-3.74-2.248-3.124-.776-7.113-1.733-7.113-6.655,0-4.257,3.127-6.7,8.225-6.7,5.182,0,8.154,2.661,8.154,7.059h-5.972a1.994,1.994,0,0,0-2.253-2.008c-1.061,0-2.08.459-2.08,1.468,0,1.228,1.629,1.634,3.664,2.145,3.182.821,7.341,1.884,7.341,6.82,0,4.721-3.627,7.172-8.647,7.172C1555.145,1354.175,1551.726,1351.378,1551.726,1346.666Z" transform="translate(-1458.088 -1304.193)"/></g></g></svg>