<svg xmlns="http://www.w3.org/2000/svg" width="137.524" height="41.97" viewBox="0 0 137.524 41.97"><defs><style>.a{fill:#24262b;}.b{fill:#fff;}</style></defs><g transform="translate(-1328.237 -1266.298)"><g transform="translate(1423.105 1266.71)"><path class="a" d="M1668.348,1286.538l13.6-19.068h-13.341l-6.9,9.677Z" transform="translate(-1639.297 -1267.469)"/><path class="b" d="M1611.566,1267.469h-13.58l14.593,20.636-14.593,20.463h13.34l14.792-20.549Z" transform="translate(-1597.985 -1267.469)"/><path class="a" d="M1668.061,1329.88l-6.889,9.473,6.852,9.676h13.58Z" transform="translate(-1638.949 -1307.931)"/></g><g transform="translate(1328.237 1266.298)"><path class="b" d="M1328.237,1278.512h4.953a1.85,1.85,0,0,0,2.055,1.851c1.006,0,1.967-.536,1.967-1.487,0-1.094-1.357-1.41-3.016-1.813-2.519-.626-5.735-1.4-5.735-5.366,0-3.432,2.522-5.4,6.632-5.4,4.179,0,6.575,2.145,6.575,5.692h-4.816a1.608,1.608,0,0,0-1.817-1.62c-.856,0-1.677.371-1.677,1.184,0,.99,1.314,1.318,2.955,1.73,2.565.662,5.92,1.519,5.92,5.5,0,3.807-2.925,5.783-6.973,5.783C1330.995,1284.567,1328.237,1282.311,1328.237,1278.512Z" transform="translate(-1328.237 -1266.298)"/><path class="b" d="M1390.705,1284.9l-1.36-10.038-4.622,10.067H1383.3l-4.621-10.063-1.341,10.034h-4.866l2.636-17.43h4.8l4.1,9.484,4.132-9.484h4.8l2.612,17.43Z" transform="translate(-1356.918 -1267.058)"/><path class="b" d="M1456.677,1282.069H1450.5l-.965,2.831h-5.146l6.847-17.43h4.694l7,17.43h-5.288Zm-3.1-9.159-1.91,5.4h3.837Z" transform="translate(-1403.539 -1267.058)"/><path class="b" d="M1511.363,1279.567h-1.741v5.333h-4.8v-17.43h7.555c3.758,0,6.482,2.525,6.482,6.168a5.582,5.582,0,0,1-2.767,4.922l3.461,6.339h-5.36Zm-1.741-4.045h2.194a1.9,1.9,0,1,0,0-3.785h-2.194Z" transform="translate(-1442.718 -1267.058)"/><path class="b" d="M1566.806,1271.794h-4.734V1284.9h-4.823v-13.106h-4.735v-4.323h14.293Z" transform="translate(-1473.637 -1267.058)"/><path class="b" d="M1344.947,1341.8c0,5.3-3.888,9.087-9.366,9.087h-7.344v-18.144h7.344C1341.074,1332.738,1344.947,1336.494,1344.947,1341.8Zm-5.124,0a4.229,4.229,0,0,0-4.478-4.479h-2.087v8.989h2.087A4.26,4.26,0,0,0,1339.823,1341.8Z" transform="translate(-1328.237 -1309.372)"/><path class="b" d="M1391.621,1345.331h-1.813v5.551h-5v-18.144h7.864c3.912,0,6.747,2.628,6.747,6.422a5.811,5.811,0,0,1-2.88,5.124l3.6,6.6h-5.579Zm-1.813-4.211h2.283a1.982,1.982,0,1,0,0-3.94h-2.283Z" transform="translate(-1364.914 -1309.372)"/><path class="b" d="M1435.75,1343.864v-11.126h5.109v11.032a2.814,2.814,0,1,0,5.624,0v-11.032h5.108v11.126c0,4.463-3.294,7.478-7.92,7.478S1435.75,1348.327,1435.75,1343.864Z" transform="translate(-1397.939 -1309.372)"/><path class="b" d="M1508.481,1340.339c0,5.937-3.876,10.155-9.558,10.155a9.531,9.531,0,1,1-.045-19.061c4.756,0,8.646,2.976,9.414,7.193h-5.239a4.4,4.4,0,0,0-4.13-2.511c-2.718,0-4.55,1.965-4.55,4.864,0,2.869,1.8,4.834,4.55,4.834a4.3,4.3,0,0,0,4.114-2.322h-4.506v-3.151Z" transform="translate(-1432.628 -1308.526)"/><path class="b" d="M1551.726,1344.234h5.156a1.925,1.925,0,0,0,2.14,1.927c1.047,0,2.047-.557,2.047-1.548,0-1.138-1.412-1.468-3.14-1.887-2.622-.652-5.971-1.455-5.971-5.586,0-3.573,2.625-5.62,6.9-5.62,4.35,0,6.845,2.233,6.845,5.925h-5.013a1.674,1.674,0,0,0-1.891-1.686c-.89,0-1.746.385-1.746,1.232,0,1.031,1.367,1.371,3.076,1.8,2.671.689,6.162,1.581,6.162,5.725,0,3.963-3.045,6.02-7.258,6.02C1554.6,1350.536,1551.726,1348.188,1551.726,1344.234Z" transform="translate(-1473.127 -1308.581)"/></g></g></svg>