<svg xmlns="http://www.w3.org/2000/svg" width="123.628" height="37.729" viewBox="0 0 123.628 37.729"><defs><style>.a{fill:#f79e00;}.b{fill:#fff;}</style></defs><g transform="translate(-1328.237 -1266.298)"><g transform="translate(1413.519 1266.668)"><path class="a" d="M1667.677,1284.611l12.23-17.141h-11.993l-6.207,8.7Z" transform="translate(-1641.561 -1267.469)"/><path class="b" d="M1610.194,1267.469h-12.208l13.118,18.551-13.119,18.395h11.992l13.3-18.473Z" transform="translate(-1597.985 -1267.469)"/><path class="a" d="M1667.365,1329.88l-6.193,8.516,6.159,8.7h12.208Z" transform="translate(-1641.195 -1310.148)"/></g><g transform="translate(1328.237 1266.298)"><path class="b" d="M1328.237,1277.278h4.453a1.663,1.663,0,0,0,1.848,1.664c.9,0,1.768-.481,1.768-1.337,0-.983-1.22-1.268-2.711-1.63-2.265-.563-5.156-1.257-5.156-4.824,0-3.086,2.267-4.854,5.962-4.854,3.756,0,5.911,1.928,5.911,5.117h-4.329a1.446,1.446,0,0,0-1.633-1.456c-.769,0-1.508.333-1.508,1.065,0,.89,1.181,1.184,2.656,1.555,2.306.595,5.322,1.365,5.322,4.944,0,3.422-2.63,5.2-6.268,5.2C1330.716,1282.721,1328.237,1280.693,1328.237,1277.278Z" transform="translate(-1328.237 -1266.298)"/><path class="b" d="M1388.863,1283.139l-1.223-9.024-4.156,9.05h-1.275l-4.154-9.046-1.206,9.02h-4.375l2.37-15.669h4.311l3.69,8.526,3.714-8.526h4.311l2.348,15.669Z" transform="translate(-1358.489 -1267.1)"/><path class="b" d="M1455.436,1280.594h-5.554l-.868,2.545h-4.626l6.155-15.669h4.219l6.29,15.669H1456.3Zm-2.785-8.234-1.717,4.856h3.449Z" transform="translate(-1407.666 -1267.1)"/><path class="b" d="M1510.7,1278.344h-1.565v4.794h-4.317V1267.47h6.792a5.467,5.467,0,0,1,5.827,5.545,5.018,5.018,0,0,1-2.487,4.425l3.111,5.7h-4.818Zm-1.565-3.636h1.972a1.712,1.712,0,1,0,0-3.4h-1.972Z" transform="translate(-1448.993 -1267.1)"/><path class="b" d="M1565.362,1271.357h-4.256v11.782h-4.336v-11.782h-4.257v-3.887h12.849Z" transform="translate(-1481.607 -1267.1)"/><path class="b" d="M1343.259,1340.88c0,4.76-3.5,8.169-8.42,8.169h-6.6v-16.311h6.6C1339.777,1332.738,1343.259,1336.114,1343.259,1340.88Zm-4.607,0a3.8,3.8,0,0,0-4.026-4.027h-1.876v8.08h1.876A3.83,3.83,0,0,0,1338.652,1340.88Z" transform="translate(-1328.237 -1311.733)"/><path class="b" d="M1390.933,1344.058h-1.63v4.99h-4.494v-16.311h7.07c3.517,0,6.065,2.363,6.065,5.772a5.223,5.223,0,0,1-2.589,4.606l3.239,5.932h-5.016Zm-1.63-3.786h2.053a1.782,1.782,0,1,0,0-3.542H1389.3Z" transform="translate(-1366.924 -1311.733)"/><path class="b" d="M1435.75,1342.74v-10h4.593v9.917a2.53,2.53,0,1,0,5.056,0v-9.917h4.592v10c0,4.012-2.961,6.722-7.12,6.722S1435.75,1346.752,1435.75,1342.74Z" transform="translate(-1401.759 -1311.733)"/><path class="b" d="M1506.538,1339.439c0,5.337-3.485,9.129-8.592,9.129a8.568,8.568,0,1,1-.04-17.135c4.275,0,7.773,2.676,8.463,6.466h-4.709a3.957,3.957,0,0,0-3.713-2.257c-2.443,0-4.09,1.766-4.09,4.373a4,4,0,0,0,4.09,4.346,3.865,3.865,0,0,0,3.7-2.088h-4.051v-2.833Z" transform="translate(-1438.349 -1310.84)"/><path class="b" d="M1551.726,1342.949h4.635a1.731,1.731,0,0,0,1.924,1.732c.941,0,1.84-.5,1.84-1.392,0-1.023-1.269-1.32-2.822-1.7-2.358-.586-5.367-1.308-5.367-5.022,0-3.212,2.36-5.052,6.206-5.052,3.911,0,6.153,2.008,6.153,5.326h-4.507a1.5,1.5,0,0,0-1.7-1.515c-.8,0-1.569.347-1.569,1.108,0,.926,1.229,1.233,2.765,1.619,2.4.62,5.54,1.422,5.54,5.146,0,3.562-2.737,5.411-6.525,5.411C1554.306,1348.615,1551.726,1346.5,1551.726,1342.949Z" transform="translate(-1481.069 -1310.899)"/></g></g></svg>