<svg xmlns="http://www.w3.org/2000/svg" width="66.327" height="66.325" viewBox="0 0 66.327 66.325"><defs><style>.a{fill:#f79e00;}</style></defs><g transform="translate(-247.271 -1139.974)"><path class="a" d="M402.273,1313.132a18.164,18.164,0,1,1,18.164-18.164A18.185,18.185,0,0,1,402.273,1313.132Zm0-31.361a13.2,13.2,0,1,0,13.2,13.2A13.212,13.212,0,0,0,402.273,1281.771Z" transform="translate(-106.84 -106.833)"/><path class="a" d="M426.258,1336.213a2.494,2.494,0,0,1-1.756-.729l-5.453-5.453a2.484,2.484,0,0,1,3.513-3.514l3.579,3.577,7.8-8.909a2.483,2.483,0,1,1,3.738,3.269l-9.544,10.908a2.51,2.51,0,0,1-1.791.85h-.083Z" transform="translate(-133.552 -140.822)"/><path class="a" d="M270.89,1198.118a2.282,2.282,0,0,1-.482-.048c-.223-.042-23.137-4.731-23.137-30.58v-16.853a2.467,2.467,0,0,1,1.586-2.315l21.135-8.181a2.491,2.491,0,0,1,1.792,0l21.135,8.182a2.466,2.466,0,0,1,1.589,2.315v12.272a2.484,2.484,0,0,1-4.968,0v-10.57l-18.651-7.218-18.651,7.218v15.151c0,8.6,2.821,15.4,8.385,20.223a25.655,25.655,0,0,0,10.311,5.387,2.458,2.458,0,0,1,2.828,1.968,2.487,2.487,0,0,1-1.951,2.921l-.514.094A2.33,2.33,0,0,1,270.89,1198.118Z" transform="translate(0 0)"/></g></svg>