<svg xmlns="http://www.w3.org/2000/svg" width="67.102" height="72.48" viewBox="0 0 67.102 72.48"><defs><style>.a{fill:#f79e00;}</style></defs><g transform="translate(-794.735 -443.249)"><g transform="translate(794.735 443.249)"><path class="a" d="M852.01,458.454a33.291,33.291,0,0,0-18.936-9.488l2.091-2.092a2.123,2.123,0,0,0-3-3l-5.378,5.378a2.124,2.124,0,0,0,0,3l5.378,5.377a2.123,2.123,0,0,0,3-3l-1.2-1.2a29.268,29.268,0,1,1-15.537,1.143,2.123,2.123,0,1,0-1.428-4,33.56,33.56,0,1,0,35.008,7.882Zm0,0" transform="translate(-794.735 -443.249)"/></g><path class="a" d="M856.832,555.62A21.817,21.817,0,1,0,878.649,533.8a21.842,21.842,0,0,0-21.817,21.818Zm21.817-17.571a17.57,17.57,0,1,1-17.57,17.571,17.591,17.591,0,0,1,17.57-17.571Zm0,0" transform="translate(-50.363 -73.441)"/><path class="a" d="M944.6,587.781a18.051,18.051,0,0,1-4.56-2.113,1.341,1.341,0,0,1-.267-1.24A1.883,1.883,0,0,1,941,582.942a3.5,3.5,0,0,1,3.168.459,2.123,2.123,0,1,0,2.543-3.4,7.73,7.73,0,0,0-2.7-1.252v-.569a2.124,2.124,0,0,0-4.247,0v.7a6.084,6.084,0,0,0-4.169,4.762,5.454,5.454,0,0,0,1.819,5.368,21,21,0,0,0,5.766,2.776,2.163,2.163,0,0,1,1.592,2.564,2.921,2.921,0,0,1-2.9,2.463,5.011,5.011,0,0,1-3.638-.95,2.123,2.123,0,1,0-2.325,3.554,8.64,8.64,0,0,0,3.853,1.544v.637a2.124,2.124,0,0,0,4.247,0v-.854a6.969,6.969,0,0,0,2.7-1.548,7.292,7.292,0,0,0,2.246-4.142,6.425,6.425,0,0,0-4.364-7.273Zm0,0" transform="translate(-113.724 -107.71)"/></g></svg>