<svg xmlns="http://www.w3.org/2000/svg" width="80.786" height="47.826" viewBox="0 0 80.786 47.826"><defs><style>.a{fill:#f79e00;fill-rule:evenodd;}</style></defs><g transform="translate(-1426.124 -583.118)"><g transform="translate(1426.124 583.118)"><path class="a" d="M1458.288,618.949h24.637c2.79-8.213,14.429-8.134,17.191,0h2.059V607.111a2.693,2.693,0,0,0-2.684-2.683H1481.34a2.368,2.368,0,0,1-2.369-2.368V587.853h-40.565v2.841h4.353c3.117,0,3.117,4.735,0,4.735h-4.353v4.578h11.365a2.368,2.368,0,0,1,0,4.735h-11.365v14.206h2.69c2.789-8.213,14.429-8.133,17.192,0Zm-24.617-23.52h-2.841a2.368,2.368,0,0,1,0-4.735h2.841v-5.208a2.368,2.368,0,0,1,2.368-2.368c3.624,0,43.446.015,43.446,0a17.632,17.632,0,0,1,15.45,8.784l4.642,7.791a7.43,7.43,0,0,1,7.333,7.417v14.206a2.368,2.368,0,0,1-2.368,2.368h-4.128a9.078,9.078,0,0,1-17.789,0h-24.039a9.078,9.078,0,0,1-17.789,0h-4.759a2.368,2.368,0,0,1-2.368-2.368v-7.1h-5.209a2.368,2.368,0,0,1,0-4.735h5.209v-4.735h-5.209c-3.117,0-3.117-4.735,0-4.735h5.209ZM1494.59,618.8a4.341,4.341,0,1,1-7.411,3.07,4.342,4.342,0,0,1,7.411-3.07Zm-.509-19.107h-10.374v-11.2a12.89,12.89,0,0,1,7.176,5.83Zm-41.32,19.107a4.341,4.341,0,1,1-7.41,3.07,4.341,4.341,0,0,1,7.41-3.07Zm0,0" transform="translate(-1426.124 -583.118)"/></g></g></svg>