<svg xmlns="http://www.w3.org/2000/svg" width="68.307" height="68.308" viewBox="0 0 68.307 68.308"><defs><style>.a{fill:#f89d00;}</style></defs><path class="a" d="M78.5,52.47A29.613,29.613,0,1,1,48.89,82.083,29.647,29.647,0,0,1,78.5,52.47m0-4.541A34.154,34.154,0,0,0,44.349,82.08v0A34.154,34.154,0,0,0,78.5,116.237h0a34.154,34.154,0,0,0,0-68.308Z" transform="translate(-44.349 -47.929)"/><path class="a" d="M81.805,76.174a6.627,6.627,0,0,0,3.432-6.163c0-4.338-4.347-7.825-9.124-7.825H75.64V55.8H71.67v6.391H68.562L68.418,55.8H64.473v6.391H56.426v4.934h3.718a1.642,1.642,0,0,1,1.578,1.7V86.557a1.64,1.64,0,0,1-1.578,1.7H57.395l-.969,4.8h8.047v6.389h4.085V93.056h3.109v6.391h3.97V93.056c5.9,0,12.251-2.544,12.253-9.625A7.317,7.317,0,0,0,81.8,76.173M68.551,67.12H73.07a3.4,3.4,0,0,1,3.765,3,3.03,3.03,0,0,1,.022.338,3.343,3.343,0,0,1-3.322,3.366,3.277,3.277,0,0,1-.465-.03H68.551Zm5.43,21.133h-5.43l-.044-9.135h5.475c3.165,0,5.161,1.827,5.185,4.568s-1.922,4.568-5.187,4.568" transform="translate(-37.369 -43.382)"/></svg>