<svg xmlns="http://www.w3.org/2000/svg" width="144.765" height="107.037" viewBox="0 0 144.765 107.037"><defs><style>.a{fill:#f89d00;}</style></defs><path class="a" d="M258.875,260.762H157.348a8.171,8.171,0,0,1-8.164-8.161V188.8a8.172,8.172,0,0,1,8.164-8.162H258.875a8.171,8.171,0,0,1,8.161,8.162v63.8A8.171,8.171,0,0,1,258.875,260.762ZM157.348,185.306a3.5,3.5,0,0,0-3.495,3.493v63.8a3.5,3.5,0,0,0,3.495,3.492H258.875a3.5,3.5,0,0,0,3.492-3.492V188.8a3.5,3.5,0,0,0-3.492-3.493Z" transform="translate(-122.271 -153.725)"/><path class="a" d="M124.369,215.886H112.85a8.548,8.548,0,0,1-8.54-8.54V144.3a8.548,8.548,0,0,1,8.54-8.54H213.62a8.548,8.548,0,0,1,8.54,8.54v11.1a2.334,2.334,0,1,1-4.669,0V144.3a3.876,3.876,0,0,0-3.871-3.871H112.85a3.877,3.877,0,0,0-3.871,3.871v63.042a3.877,3.877,0,0,0,3.871,3.871h11.519a2.334,2.334,0,1,1,0,4.669Z" transform="translate(-104.31 -135.764)"/><path class="a" d="M264.7,205.468H151.518a2.335,2.335,0,0,1,0-4.669H264.7a2.335,2.335,0,0,1,0,4.669Z" transform="translate(-122.271 -161.795)"/><path class="a" d="M264.7,232.085H151.518a2.335,2.335,0,0,1,0-4.669H264.7a2.335,2.335,0,0,1,0,4.669Z" transform="translate(-122.271 -172.449)"/><g transform="translate(38.038 69.918)"><path class="a" d="M200.056,257.013H170.069a2.334,2.334,0,1,1,0-4.669h29.988a2.334,2.334,0,1,1,0,4.669Z" transform="translate(-167.734 -252.344)"/><path class="a" d="M200.056,277.985H170.069a2.334,2.334,0,1,1,0-4.669h29.988a2.334,2.334,0,1,1,0,4.669Z" transform="translate(-167.734 -260.738)"/></g><path class="a" d="M291.677,270.556A11.526,11.526,0,1,1,303.2,259.032,11.538,11.538,0,0,1,291.677,270.556Zm0-18.382a6.857,6.857,0,1,0,6.855,6.858A6.863,6.863,0,0,0,291.677,252.174Z" transform="translate(-174.693 -180.489)"/></svg>