<svg xmlns="http://www.w3.org/2000/svg" width="131.719" height="139.084" viewBox="0 0 131.719 139.084"><defs><style>.a{fill:#f89d00;}</style></defs><g transform="translate(88.43 23.885)"><path class="a" d="M1873.467-801.185a18.788,18.788,0,0,1,18.766,18.767,18.788,18.788,0,0,1-18.766,18.767,18.788,18.788,0,0,1-18.767-18.767,18.788,18.788,0,0,1,18.767-18.767m0-2.878a21.644,21.644,0,0,0-21.645,21.644,21.644,21.644,0,0,0,21.645,21.645,21.644,21.644,0,0,0,21.644-21.645,21.645,21.645,0,0,0-21.644-21.644Z" transform="translate(-1851.822 804.063)"/><path class="a" d="M1891.287-768.5a5.585,5.585,0,0,0,.75,2.8l-.008,0a2.381,2.381,0,0,1-.871,3.252,2.38,2.38,0,0,1-3.252-.871,5.6,5.6,0,0,0-4.857-2.8,5.607,5.607,0,0,0-5.607,5.607,5.607,5.607,0,0,0,5.607,5.607,5.6,5.6,0,0,0,4.857-2.8l.008,0a2.38,2.38,0,0,1,3.252-.871,2.38,2.38,0,0,1,.871,3.252,5.58,5.58,0,0,0-.75,2.8,5.607,5.607,0,0,0,5.607,5.607,5.607,5.607,0,0,0,5.607-5.607,5.607,5.607,0,0,0-5.607-5.607v-.01a2.38,2.38,0,0,1-2.38-2.38,2.38,2.38,0,0,1,2.38-2.38h0a5.607,5.607,0,0,0,5.607-5.607,5.607,5.607,0,0,0-5.607-5.607,5.607,5.607,0,0,0-5.607,5.607" transform="translate(-1870.563 782.151)"/></g><g transform="translate(0 71.973)"><g transform="translate(0 0)"><path class="a" d="M1544.176-622.116a18.788,18.788,0,0,1,18.767,18.767,18.788,18.788,0,0,1-18.767,18.767,18.788,18.788,0,0,1-18.767-18.767,18.788,18.788,0,0,1,18.767-18.767m0-2.878a21.644,21.644,0,0,0-21.644,21.645,21.644,21.644,0,0,0,21.644,21.644,21.644,21.644,0,0,0,21.644-21.644,21.645,21.645,0,0,0-21.644-21.645Z" transform="translate(-1522.532 624.994)"/></g><g transform="translate(6.553 7.312)"><path class="a" d="M1588.407-564.029a2.153,2.153,0,0,0,2.125-2.18,2.153,2.153,0,0,0-2.125-2.18,2.153,2.153,0,0,0-2.125,2.18,2.153,2.153,0,0,0,2.125,2.18" transform="translate(-1575.716 576.279)"/><path class="a" d="M1604.15-566.21a2.153,2.153,0,0,0,2.125,2.18,2.153,2.153,0,0,0,2.125-2.18,2.153,2.153,0,0,0-2.125-2.18,2.153,2.153,0,0,0-2.125,2.18" transform="translate(-1588.785 576.279)"/><path class="a" d="M1599.759-577.947a1.254,1.254,0,0,0,1.237-1.27,1.254,1.254,0,0,0-1.237-1.27,1.254,1.254,0,0,0-1.237,1.27,1.254,1.254,0,0,0,1.237,1.27" transform="translate(-1584.669 585.126)"/><path class="a" d="M1620.264-581.522a1.024,1.024,0,0,0,1.011-1.037,1.024,1.024,0,0,0-1.011-1.037,1.024,1.024,0,0,0-1.01,1.037,1.024,1.024,0,0,0,1.01,1.037" transform="translate(-1599.833 587.4)"/><path class="a" d="M1628.225-593.313a.663.663,0,0,0,.654-.671.663.663,0,0,0-.654-.671.663.663,0,0,0-.655.671.663.663,0,0,0,.655.671" transform="translate(-1605.916 595.491)"/><path class="a" d="M1580.489-581.522a1.024,1.024,0,0,0,1.011-1.037,1.024,1.024,0,0,0-1.011-1.037,1.024,1.024,0,0,0-1.01,1.037,1.024,1.024,0,0,0,1.01,1.037" transform="translate(-1570.739 587.4)"/><path class="a" d="M1574.468-593.313a.663.663,0,0,0,.654-.671.663.663,0,0,0-.654-.671.663.663,0,0,0-.655.671.663.663,0,0,0,.655.671" transform="translate(-1566.595 595.491)"/><path class="a" d="M1600.791-596.037a.861.861,0,0,0,.858-.865.861.861,0,0,0-.858-.864.861.861,0,0,0-.858.864.861.861,0,0,0,.858.865" transform="translate(-1585.701 597.765)"/><path class="a" d="M1613.083-550.333a2.153,2.153,0,0,0,2.125,2.18,2.153,2.153,0,0,0,2.125-2.18,2.153,2.153,0,0,0-2.125-2.18,2.153,2.153,0,0,0-2.125,2.18" transform="translate(-1595.319 564.665)"/><path class="a" d="M1590.532-534.458a2.153,2.153,0,0,0-2.125-2.18,2.153,2.153,0,0,0-2.125,2.18,2.153,2.153,0,0,0,2.125,2.18,2.153,2.153,0,0,0,2.125-2.18" transform="translate(-1575.716 553.053)"/><path class="a" d="M1606.274-536.638a2.153,2.153,0,0,0-2.125,2.18,2.154,2.154,0,0,0,2.125,2.181,2.154,2.154,0,0,0,2.125-2.181,2.153,2.153,0,0,0-2.125-2.18" transform="translate(-1588.785 553.053)"/><path class="a" d="M1577.347-550.333a2.153,2.153,0,0,0,2.125,2.18,2.153,2.153,0,0,0,2.125-2.18,2.153,2.153,0,0,0-2.125-2.18,2.153,2.153,0,0,0-2.125,2.18" transform="translate(-1569.18 564.665)"/><path class="a" d="M1572.664-562.437a1.221,1.221,0,0,0,1.69-.465,1.288,1.288,0,0,0-.453-1.734,1.22,1.22,0,0,0-1.69.465,1.287,1.287,0,0,0,.453,1.734" transform="translate(-1565.302 573.657)"/><path class="a" d="M1574.354-532.807a1.221,1.221,0,0,0-1.691-.464,1.287,1.287,0,0,0-.452,1.734,1.22,1.22,0,0,0,1.69.465,1.288,1.288,0,0,0,.453-1.734" transform="translate(-1565.302 550.715)"/><path class="a" d="M1599.759-517.76a1.253,1.253,0,0,0-1.237,1.269,1.254,1.254,0,0,0,1.237,1.27,1.254,1.254,0,0,0,1.237-1.27,1.253,1.253,0,0,0-1.237-1.269" transform="translate(-1584.669 539.245)"/><path class="a" d="M1626.852-533.273a1.221,1.221,0,0,0-1.691.465,1.287,1.287,0,0,0,.453,1.734,1.22,1.22,0,0,0,1.69-.465,1.288,1.288,0,0,0-.453-1.734" transform="translate(-1604.032 550.716)"/><path class="a" d="M1625.614-564.636a1.288,1.288,0,0,0-.453,1.734,1.221,1.221,0,0,0,1.691.465,1.288,1.288,0,0,0,.453-1.734,1.221,1.221,0,0,0-1.69-.465" transform="translate(-1604.032 573.657)"/><path class="a" d="M1560.094-548.118a1.051,1.051,0,0,0-.37,1.416,1,1,0,0,0,1.381.38,1.052,1.052,0,0,0,.37-1.417,1,1,0,0,0-1.381-.379" transform="translate(-1556.191 561.553)"/><path class="a" d="M1579.982-512.78a1.053,1.053,0,0,0-.37,1.417,1,1,0,0,0,1.381.38,1.051,1.051,0,0,0,.37-1.416,1,1,0,0,0-1.381-.38" transform="translate(-1570.738 535.704)"/><path class="a" d="M1620.768-512.78a1,1,0,0,0-1.381.38,1.052,1.052,0,0,0,.37,1.416,1,1,0,0,0,1.381-.38,1.052,1.052,0,0,0-.37-1.417" transform="translate(-1599.832 535.704)"/><path class="a" d="M1641.027-546.7a1.051,1.051,0,0,0-.37-1.416,1,1,0,0,0-1.38.379,1.052,1.052,0,0,0,.37,1.417,1,1,0,0,0,1.381-.38" transform="translate(-1614.379 561.553)"/><path class="a" d="M1547.263-546.805a.681.681,0,0,0-.24.917.646.646,0,0,0,.894.246.681.681,0,0,0,.24-.917.645.645,0,0,0-.894-.246" transform="translate(-1546.936 560.556)"/><path class="a" d="M1574.14-499.045a.681.681,0,0,0-.239.917.646.646,0,0,0,.894.246.682.682,0,0,0,.239-.917.646.646,0,0,0-.894-.245" transform="translate(-1566.595 525.622)"/><path class="a" d="M1558.058-522.469a.885.885,0,0,0-.3,1.194.839.839,0,0,0,1.159.331.886.886,0,0,0,.3-1.2.839.839,0,0,0-1.158-.33" transform="translate(-1554.766 542.773)"/><path class="a" d="M1628.552-499.045a.645.645,0,0,0-.894.245.681.681,0,0,0,.239.917.645.645,0,0,0,.893-.246.681.681,0,0,0-.239-.917" transform="translate(-1605.916 525.622)"/><path class="a" d="M1655.43-546.805a.645.645,0,0,0-.894.246.681.681,0,0,0,.239.917.645.645,0,0,0,.894-.246.68.68,0,0,0-.239-.917" transform="translate(-1625.576 560.556)"/><path class="a" d="M1643.589-522.469a.84.84,0,0,0-1.159.33.886.886,0,0,0,.3,1.2.839.839,0,0,0,1.159-.331.885.885,0,0,0-.3-1.194" transform="translate(-1616.7 542.773)"/><path class="a" d="M1600.791-497.462a.861.861,0,0,0-.858.864.861.861,0,0,0,.858.864.861.861,0,0,0,.858-.864.861.861,0,0,0-.858-.864" transform="translate(-1585.701 524.398)"/><path class="a" d="M1558.058-571.1a.839.839,0,0,0,1.158-.33.886.886,0,0,0-.3-1.195.839.839,0,0,0-1.159.331.884.884,0,0,0,.3,1.194" transform="translate(-1554.766 579.457)"/><path class="a" d="M1642.73-572.621a.885.885,0,0,0-.3,1.194.839.839,0,0,0,1.158.331.886.886,0,0,0,.3-1.195.84.84,0,0,0-1.159-.33" transform="translate(-1616.7 579.457)"/></g></g><g transform="translate(44.349)"><path class="a" d="M1709.353-890.122a18.815,18.815,0,0,1,18.794,18.794,18.815,18.815,0,0,1-18.794,18.794,18.815,18.815,0,0,1-18.794-18.794,18.815,18.815,0,0,1,18.794-18.794m0-2.882a21.676,21.676,0,0,0-21.676,21.676,21.676,21.676,0,0,0,21.676,21.676,21.676,21.676,0,0,0,21.676-21.676A21.677,21.677,0,0,0,1709.353-893Z" transform="translate(-1687.677 893.004)"/><g transform="translate(8.269 8.868)"><g transform="translate(0.172 9.634)"><path class="a" d="M1727.821-823.959c-3.455-.74-6.672,1.353-8.713,4.268a9.446,9.446,0,0,1,6.011.562c.588-1.058,2.7-4.83,2.7-4.83" transform="translate(-1719.108 824.108)"/></g><g transform="translate(0 9.463)"><path class="a" d="M1724.652-819.424a.176.176,0,0,1-.07-.015,9.248,9.248,0,0,0-5.9-.552.172.172,0,0,1-.182-.07.172.172,0,0,1,0-.2c2.379-3.4,5.7-5.019,8.889-4.337a.171.171,0,0,1,.121.1.171.171,0,0,1-.007.154s-2.114,3.771-2.7,4.829A.171.171,0,0,1,1724.652-819.424Zm-3.855-1.164a9.771,9.771,0,0,1,3.781.773c.575-1.034,2.081-3.721,2.51-4.488-2.862-.507-5.829.927-8.044,3.882A9.239,9.239,0,0,1,1720.8-820.588Z" transform="translate(-1718.469 824.747)"/></g><g transform="translate(13.764 15.731)"><path class="a" d="M1773.338-801.406c1.876,2.994,1.011,6.732-1.031,9.649a9.446,9.446,0,0,0-2.584-5.457c.794-.914,3.615-4.192,3.615-4.192" transform="translate(-1769.723 801.406)"/></g><g transform="translate(13.592 15.559)"><path class="a" d="M1771.84-792.053a.173.173,0,0,1-.042-.005.173.173,0,0,1-.128-.147,9.246,9.246,0,0,0-2.537-5.357.172.172,0,0,1-.006-.232c.794-.914,3.615-4.191,3.615-4.191a.172.172,0,0,1,.143-.059.173.173,0,0,1,.133.08c1.73,2.762,1.343,6.44-1.036,9.838A.172.172,0,0,1,1771.84-792.053Zm-2.353-5.634a9.621,9.621,0,0,1,2.462,4.994c2.019-3.093,2.352-6.371.9-8.888C1772.272-800.916,1770.262-798.581,1769.487-797.687Z" transform="translate(-1769.083 802.045)"/></g><g transform="translate(4.166 16.862)"><path class="a" d="M1740.778-793.9c-1.323,1.891-3.3,2.79-4.419,2.008s-.948-2.948.376-4.839l-.666-.466c-2.18,3.112-2.742,6.477-1.258,7.516s4.454-.642,6.632-3.753Z" transform="translate(-1733.983 797.193)"/></g><g transform="translate(5.444)"><path class="a" d="M1745.955-838.977a1.624,1.624,0,0,1-.933-.3l-5.586-3.911a1.624,1.624,0,0,1-.493-2.116c.69-1.253,1.571-2.822,2.791-4.993.645-1.148,1.385-2.465,2.243-4,2-3.575,5.1-5.172,11.041-5.694a.435.435,0,0,1,.459.321c1.542,5.763,1.1,9.218-1.573,12.323-1.153,1.338-2.143,2.491-3.006,3.5-1.615,1.879-2.781,3.237-3.72,4.31A1.622,1.622,0,0,1,1745.955-838.977Zm-3.461-10.888c-1.219,2.169-2.1,3.736-2.787,4.986a.754.754,0,0,0,.229.982l5.586,3.911a.753.753,0,0,0,1-.121c.935-1.07,2.1-2.426,3.714-4.3.863-1,1.854-2.157,3.007-3.5,2.4-2.791,2.829-5.944,1.485-11.174-5.373.525-8.191,2-9.991,5.218m4.977,5.132a3.18,3.18,0,0,1-1.829-.577,3.2,3.2,0,0,1-.785-4.453,3.2,3.2,0,0,1,4.452-.785,3.2,3.2,0,0,1,.786,4.453h0A3.2,3.2,0,0,1,1749.715-848.73Zm.009-5.521a2.324,2.324,0,0,0-1.908.991,2.328,2.328,0,0,0,.571,3.239,2.329,2.329,0,0,0,3.239-.571h0a2.329,2.329,0,0,0-.571-3.239A2.314,2.314,0,0,0,1749.723-854.25Z" transform="translate(-1738.74 859.983)"/></g></g></g><g transform="translate(44.349 95.795)"><g transform="translate(0 0)"><path class="a" d="M1709.321-533.411a18.788,18.788,0,0,1,18.767,18.767,18.788,18.788,0,0,1-18.767,18.767,18.788,18.788,0,0,1-18.767-18.767,18.788,18.788,0,0,1,18.767-18.767m0-2.878a21.645,21.645,0,0,0-21.644,21.645A21.645,21.645,0,0,0,1709.321-493a21.644,21.644,0,0,0,21.644-21.644,21.645,21.645,0,0,0-21.644-21.645Z" transform="translate(-1687.677 536.289)"/></g><g transform="translate(6.593 6.429)"><rect class="a" width="4.992" height="4.992" transform="translate(11.625 15.216) rotate(-45)"/><rect class="a" width="4.991" height="4.992" transform="translate(23.251 15.216) rotate(-45.004)"/><rect class="a" width="4.992" height="4.991" transform="translate(0 15.216) rotate(-44.997)"/><path class="a" d="M1752.332-503.007l-9.342-9.343-9.343,9.343,3.53,3.529,5.813-5.813,5.813,5.813Z" transform="translate(-1727.895 512.35)"/><path class="a" d="M1752.332-443.432l-9.342,9.343-9.343-9.343,3.53-3.53,5.813,5.813,5.813-5.813Z" transform="translate(-1727.895 464.522)"/></g></g><g transform="translate(88.43 71.973)"><g transform="translate(0 0)"><path class="a" d="M1873.466-622.116a18.788,18.788,0,0,1,18.767,18.767,18.788,18.788,0,0,1-18.767,18.767A18.788,18.788,0,0,1,1854.7-603.35a18.788,18.788,0,0,1,18.767-18.767m0-2.878a21.644,21.644,0,0,0-21.644,21.644,21.644,21.644,0,0,0,21.644,21.645,21.645,21.645,0,0,0,21.645-21.645,21.645,21.645,0,0,0-21.645-21.644Z" transform="translate(-1851.822 624.994)"/></g><g transform="translate(11.737 5.174)"><path class="a" d="M1932.421-566.019l9.907,5.954-9.907,5.955Z" transform="translate(-1922.514 576.682)"/><path class="a" d="M1905.436-566.019l-9.907,5.954,9.907,5.955Z" transform="translate(-1895.529 576.682)"/><path class="a" d="M1905.436-595.064l-9.907,5.954,9.907-16.618Z" transform="translate(-1895.529 605.727)"/><path class="a" d="M1932.421-595.064l9.907,5.954-9.907-16.618Z" transform="translate(-1922.514 605.727)"/><path class="a" d="M1932.421-530.3v8.331l9.907-14.284Z" transform="translate(-1922.514 554.912)"/><path class="a" d="M1905.436-530.3l-9.907-5.954,9.907,14.284Z" transform="translate(-1895.529 554.912)"/></g></g><g transform="translate(0 23.885)"><path class="a" d="M1544.191-801.183a18.8,18.8,0,0,1,18.78,18.78,18.8,18.8,0,0,1-18.78,18.779,18.8,18.8,0,0,1-18.78-18.779,18.8,18.8,0,0,1,18.78-18.78m0-2.88a21.659,21.659,0,0,0-21.659,21.659,21.659,21.659,0,0,0,21.659,21.659A21.659,21.659,0,0,0,1565.85-782.4a21.659,21.659,0,0,0-21.659-21.659Z" transform="translate(-1522.532 804.063)"/><g transform="translate(8.769 11.506)"><path class="a" d="M1580.967-750.441c0-1.392-4.379-2.554-10.212-2.831v-3.141l7.146-.012v-4.792h-19.661v4.826l7.156-.012v3.131c-5.833.277-10.211,1.438-10.211,2.831s4.378,2.554,10.211,2.832v9.979h5.359v-9.979C1576.588-747.887,1580.967-749.049,1580.967-750.441Zm-12.892,2.01c-6.349,0-11.5-1.008-11.5-2.251,0-1.063,3.76-1.953,8.817-2.189v3.611c.83.064,1.734.1,2.68.1s1.85-.036,2.68-.1v-3.611c5.057.236,8.818,1.126,8.818,2.189C1579.573-749.439,1574.425-748.431,1568.075-748.431Z" transform="translate(-1555.184 761.217)"/></g></g><g transform="translate(44.349 47.929)"><path class="a" d="M1709.322-711.651a18.788,18.788,0,0,1,18.767,18.767,18.788,18.788,0,0,1-18.767,18.767,18.788,18.788,0,0,1-18.767-18.767,18.788,18.788,0,0,1,18.767-18.767m0-2.878a21.644,21.644,0,0,0-21.645,21.645,21.645,21.645,0,0,0,21.645,21.645,21.645,21.645,0,0,0,21.644-21.645,21.644,21.644,0,0,0-21.644-21.645Z" transform="translate(-1687.677 714.529)"/><path class="a" d="M1748.734-672.317a4.2,4.2,0,0,0,2.175-3.906c0-2.749-2.755-4.959-5.782-4.959h-.3v-4.049h-2.516v4.05h-1.97l-.091-4.05h-2.5v4.05h-5.1v3.127h2.356a1.04,1.04,0,0,1,1,1.076v11.241a1.039,1.039,0,0,1-1,1.076h-1.742l-.614,3.044h5.1v4.049h2.589v-4.05h1.97v4.05h2.516v-4.05c3.736,0,7.764-1.612,7.765-6.1a4.638,4.638,0,0,0-3.862-4.6m-8.394-5.737h2.864a2.157,2.157,0,0,1,2.4,2.114,2.119,2.119,0,0,1-2.4,2.114h-2.864Zm3.441,13.393h-3.441l-.028-5.789h3.47c2.006,0,3.271,1.158,3.286,2.895s-1.218,2.895-3.287,2.895" transform="translate(-1720.573 693.099)"/></g></svg>