<svg xmlns="http://www.w3.org/2000/svg" width="68.307" height="68.306" viewBox="0 0 68.307 68.306"><defs><style>.a{fill:#f89d00;}</style></defs><g transform="translate(0 0)"><path class="a" d="M122.582,76.515a29.613,29.613,0,1,1-29.611,29.611,29.647,29.647,0,0,1,29.611-29.611m0-4.541a34.153,34.153,0,0,0-34.152,34.152h0a34.151,34.151,0,0,0,34.151,34.154h0a34.154,34.154,0,0,0,34.154-34.154h0A34.154,34.154,0,0,0,122.583,71.972Z" transform="translate(-88.431 -71.972)"/></g><g transform="translate(18.518 8.164)"><path class="a" d="M110.074,87.81,125.706,97.2l-15.632,9.4Z" transform="translate(-94.442 -70.983)"/><path class="a" d="M115.8,87.81,100.167,97.2l15.632,9.4Z" transform="translate(-100.167 -70.983)"/><path class="a" d="M115.8,93.973l-15.632,9.395L115.8,77.146Z" transform="translate(-100.167 -77.146)"/><path class="a" d="M110.074,93.973l15.632,9.395L110.074,77.146Z" transform="translate(-94.442 -77.146)"/><path class="a" d="M110.074,105.2v13.146l15.632-22.539Z" transform="translate(-94.442 -66.362)"/><path class="a" d="M115.8,105.2l-15.632-9.395L115.8,118.344Z" transform="translate(-100.167 -66.363)"/></g></svg>