<svg xmlns="http://www.w3.org/2000/svg" width="68.307" height="68.306" viewBox="0 0 68.307 68.306"><defs><style>.a{fill:#f89d00;}</style></defs><path class="a" d="M122.584,28.426A29.613,29.613,0,1,1,92.971,58.039a29.646,29.646,0,0,1,29.613-29.613m0-4.541A34.154,34.154,0,0,0,88.43,58.036v0a34.151,34.151,0,0,0,34.151,34.154h0a34.152,34.152,0,0,0,34.152-34.152v0A34.155,34.155,0,0,0,122.584,23.885Z" transform="translate(-88.43 -23.885)"/><path class="a" d="M117.155,40.781a8.81,8.81,0,0,0,1.183,4.418h-.013a3.756,3.756,0,0,1-6.5,3.759l0,0a8.851,8.851,0,0,0-16.511,4.429h0a8.847,8.847,0,0,0,8.847,8.847h0a8.836,8.836,0,0,0,7.664-4.418h.013a3.756,3.756,0,0,1,5.13-1.374h0a3.756,3.756,0,0,1,1.376,5.13l0,0A8.846,8.846,0,0,0,126,74.837h0a8.847,8.847,0,0,0,8.847-8.847h0A8.848,8.848,0,0,0,126,57.142h0v-.016a3.755,3.755,0,0,1-3.755-3.755h0A3.756,3.756,0,0,1,126,49.616h0a8.847,8.847,0,0,0,8.847-8.847h0A8.848,8.848,0,0,0,126,31.921h0a8.848,8.848,0,0,0-8.847,8.847h0" transform="translate(-84.455 -19.241)"/></svg>